<?xml version="1.0" encoding="UTF-8" standalone="no"?>
<!-- Created with Inkscape (http://www.inkscape.org/) -->

<svg
   xmlns:dc="http://purl.org/dc/elements/1.1/"
   xmlns:cc="http://creativecommons.org/ns#"
   xmlns:rdf="http://www.w3.org/1999/02/22-rdf-syntax-ns#"
   xmlns:svg="http://www.w3.org/2000/svg"
   xmlns="http://www.w3.org/2000/svg"
   xmlns:sodipodi="http://sodipodi.sourceforge.net/DTD/sodipodi-0.dtd"
   xmlns:inkscape="http://www.inkscape.org/namespaces/inkscape"
   version="1.1"
   width="32"
   height="32"
   id="svg2985"
   inkscape:version="0.48.4 r9939"
   sodipodi:docname="bgt-icon.svg"
   inkscape:export-filename="C:\Users\Ryan\Documents\GitHub\bgt-endangered\img\bgt-icon.png"
   inkscape:export-xdpi="72"
   inkscape:export-ydpi="72">
  <sodipodi:namedview
     pagecolor="#ffffff"
     bordercolor="#666666"
     borderopacity="1"
     objecttolerance="10"
     gridtolerance="10"
     guidetolerance="10"
     inkscape:pageopacity="0"
     inkscape:pageshadow="2"
     inkscape:window-width="1360"
     inkscape:window-height="745"
     id="namedview2996"
     showgrid="false"
     inkscape:zoom="7.375"
     inkscape:cx="-5.1525424"
     inkscape:cy="26.847458"
     inkscape:window-x="-8"
     inkscape:window-y="-8"
     inkscape:window-maximized="1"
     inkscape:current-layer="layer3" />
  <defs
     id="defs2987" />
  <metadata
     id="metadata2990">
    <rdf:RDF>
      <cc:Work
         rdf:about="">
        <dc:format>image/svg+xml</dc:format>
        <dc:type
           rdf:resource="http://purl.org/dc/dcmitype/StillImage" />
        <dc:title></dc:title>
      </cc:Work>
    </rdf:RDF>
  </metadata>
  <g
     inkscape:groupmode="layer"
     id="layer4"
     inkscape:label="sgffdg"
     sodipodi:insensitive="true" />
  <g
     inkscape:groupmode="layer"
     id="layer3"
     inkscape:label="symbol">
    <g
       id="layer1">
      <path
         inkscape:connector-curvature="0"
         d="m 28.666339,14.719823 a 11.520118,12.725712 0 1 1 -23.0402356,0 11.520118,12.725712 0 1 1 23.0402356,0 z"
         transform="matrix(0.95485135,0,0,1.178716,-0.37209242,-1.3504906)"
         id="path2993"
         style="color:#000000;fill:#207332;fill-opacity:1;fill-rule:nonzero;stroke:#ececec;stroke-width:0.94260018999999995;stroke-miterlimit:4;stroke-opacity:1;stroke-dasharray:none;marker:none;visibility:visible;display:inline;overflow:visible;enable-background:accumulate" />
    </g>
    <g
       id="layer2">
      <g
         transform="translate(0.1767767,0.1767767)"
         id="g3796"
         style="fill:#e6e6e6">
        <g
           transform="translate(0.3535534,0)"
           id="g3792"
           style="fill:#e6e6e6">
          <path
             inkscape:connector-curvature="0"
             d="m 10.06862,9.3537964 c -7.1e-5,0.3173516 -0.0024,0.6639636 -0.0071,1.0398376 -0.0046,0.375879 -0.01114,0.71502 -0.01951,1.017421 -0.0084,0.302406 -0.0182,0.502071 -0.02947,0.598997 -0.016577,0.177459 -0.053471,0.30448 -0.1106776,0.381066 -0.057211,0.07659 -0.1697528,0.113948 -0.337636,0.112079 l -0.537976,0 c -0.038528,-2.33e-4 -0.065146,0.0058 -0.079856,0.01822 -0.014711,0.01238 -0.021715,0.03246 -0.021014,0.06024 l 0,0.291403 c -0.00187,0.02242 0.00747,0.03922 0.028019,0.05043 0.020548,0.01121 0.06351,0.01681 0.1288902,0.01682 0.1179162,-0.0014 0.3135871,-0.007 0.5870135,-0.01682 0.2734235,-0.0098 0.5559559,-0.01541 0.8475959,-0.01682 0.227658,0.0014 0.470027,0.007 0.727109,0.01682 0.257078,0.0098 0.575101,0.01541 0.95407,0.01682 0.510881,0.0014 0.93771,-0.02942 1.280486,-0.09246 0.342767,-0.06304 0.6295,-0.166717 0.8602,-0.311017 0.26151,-0.176523 0.469789,-0.425897 0.624837,-0.748124 0.155035,-0.322223 0.234424,-0.63324 0.238166,-0.933051 C 15.193999,10.26584 15.027336,9.7923111 14.701614,9.4350572 14.37588,9.0778122 13.937375,8.8116256 13.386094,8.6364995 L 13.35247,8.6140832 C 13.791905,8.4053414 14.129074,8.1783828 14.363977,7.9332063 14.598868,7.6880407 14.717484,7.2985687 14.719825,6.76479 14.723762,6.4336984 14.659815,6.140427 14.527891,5.8849749 14.396006,5.6295337 14.172316,5.4147172 13.856868,5.2405215 13.657223,5.129852 13.386834,5.0513973 13.045701,5.0051569 c -0.341143,-0.046225 -0.732015,-0.06864 -1.172619,-0.067247 -0.208511,0.0014 -0.449945,0.007 -0.7243,0.016793 -0.27436,0.00981 -0.50739,0.015416 -0.699089,0.016809 -0.403953,-0.00139 -0.7308482,-0.007 -0.9806893,-0.016812 -0.2498425,-0.0098 -0.4198282,-0.015403 -0.5099575,-0.016811 -0.033158,-2.151e-4 -0.056508,0.00586 -0.07005,0.018232 -0.013544,0.012386 -0.020082,0.032468 -0.019614,0.060245 l 0,0.2801958 c -4.673e-4,0.027793 0.00607,0.047874 0.019614,0.060242 0.013543,0.012383 0.036892,0.018453 0.070049,0.018213 l 0.3474428,0 c 0.2538096,-0.012601 0.43547,0.018221 0.5449808,0.092465 0.1095086,0.074259 0.1706842,0.2675941 0.1835282,0.5800054 0.0039,0.080329 0.0085,0.2509373 0.0137,0.5118241 0.0051,0.2608994 0.0097,0.5336231 0.0137,0.8181724 0.0039,0.2845592 0.006,0.5024895 0.0062,0.6537898 z m 0.98629,-0.5043517 0.35865,0 c 0.259413,-0.00328 0.516725,0.00612 0.77194,0.028015 0.255209,0.021957 0.498511,0.076128 0.729911,0.1625139 0.335996,0.1293607 0.605451,0.3413753 0.808365,0.6360437 0.202902,0.2946764 0.307042,0.6692027 0.312417,1.1235847 -0.01635,0.657761 -0.199411,1.121485 -0.549183,1.391173 -0.349783,0.269688 -0.768208,0.399979 -1.255277,0.390872 -0.456022,0.0023 -0.76844,-0.117214 -0.937256,-0.358651 -0.16882,-0.241433 -0.248675,-0.618763 -0.239567,-1.131991 l 0,-1.5466797 z m 0,-1.2104465 c 2.31e-4,-0.4816982 0.0025,-0.9248742 0.007,-1.3295299 0.0045,-0.4046426 0.0096,-0.6712952 0.01541,-0.7999589 9.31e-4,-0.051128 0.01588,-0.094558 0.04483,-0.1302911 0.02896,-0.035717 0.06631,-0.059534 0.112079,-0.07145 0.04483,-0.010268 0.09806,-0.014937 0.159711,-0.01401 0.06164,9.415e-4 0.13169,0.00188 0.210147,0.0028 0.288832,-0.00163 0.565759,0.02686 0.830781,0.08546 0.265015,0.058615 0.499911,0.1571505 0.704692,0.2956064 0.204305,0.1548153 0.347671,0.3355414 0.430101,0.5421788 0.08242,0.2066509 0.122114,0.4181985 0.119083,0.6346437 0.0025,0.2500806 -0.0446,0.4924496 -0.141499,0.727108 -0.0969,0.2346692 -0.258952,0.4406128 -0.486139,0.6178318 -0.1366,0.095504 -0.325732,0.1678889 -0.567397,0.2171523 -0.241673,0.049272 -0.52327,0.074018 -0.844791,0.074247 -0.0948,4.713e-4 -0.191002,-4.625e-4 -0.288602,-0.00284 -0.0976,-0.0023 -0.199407,-0.00886 -0.305413,-0.019617 z"
             id="path3783"
             style="font-size:10.24983596999999900px;font-style:normal;font-variant:normal;font-weight:normal;font-stretch:normal;text-align:center;line-height:75%;letter-spacing:0px;word-spacing:0px;writing-mode:lr-tb;text-anchor:middle;fill:#f9f9f9;fill-opacity:1;stroke:none;font-family:Adobe Caslon Pro;-inkscape-font-specification:Adobe Caslon Pro" />
          <path
             inkscape:connector-curvature="0"
             d="m 21.184306,11.259127 c 0.0035,0.286269 -0.01472,0.503887 -0.05464,0.652856 -0.03993,0.148973 -0.122592,0.260116 -0.247972,0.333434 -0.192175,0.113947 -0.435478,0.205477 -0.729912,0.274592 -0.294444,0.06912 -0.663835,0.104602 -1.108173,0.106472 -0.365894,4.67e-4 -0.715671,-0.06491 -1.049333,-0.196137 -0.333671,-0.131225 -0.641418,-0.331098 -0.923246,-0.599619 -0.348379,-0.337402 -0.612697,-0.777775 -0.792954,-1.321124 -0.180261,-0.5433426 -0.270858,-1.1490316 -0.27179,-1.8170683 0.0033,-0.5087853 0.09199,-0.9846508 0.266186,-1.4275988 0.174187,-0.442937 0.414221,-0.8263378 0.720103,-1.1502037 0.335065,-0.3516386 0.679238,-0.5926068 1.032522,-0.7229053 0.353276,-0.1302836 0.722668,-0.1919266 1.108175,-0.1849291 0.505281,0.012383 0.92931,0.1137205 1.272088,0.3040125 0.342766,0.1903069 0.598679,0.3953166 0.767737,0.6150298 0.194028,0.2463455 0.343933,0.4877807 0.449714,0.7243062 0.105772,0.2365377 0.180018,0.4359441 0.222756,0.5982185 0.01307,0.057911 0.04295,0.087795 0.08967,0.089665 l 0.201741,-0.022416 c 0.02194,-6.954e-4 0.03688,-0.010497 0.04483,-0.029425 0.008,-0.018906 0.01167,-0.042722 0.01121,-0.071448 l -0.03362,-2.1406956 c 6.92e-4,-0.039921 -0.0063,-0.072143 -0.02102,-0.096668 -0.01472,-0.024509 -0.04133,-0.037118 -0.07986,-0.037827 -0.03317,0.00141 -0.06212,0.012617 -0.08687,0.033623 -0.02476,0.021022 -0.0481,0.043438 -0.07005,0.067247 l -0.168118,0.201741 c -0.03246,0.046006 -0.06842,0.071691 -0.107872,0.077054 -0.03946,0.00538 -0.08943,-0.016571 -0.149905,-0.065846 C 21.27723,5.298903 20.982092,5.1541353 20.59029,5.0191666 20.198477,4.8842136 19.757637,4.8122968 19.267766,4.8034159 c -0.669905,0.00164 -1.263453,0.09364 -1.780643,0.2759932 -0.517198,0.1823684 -0.97345,0.445285 -1.368758,0.788751 -0.415625,0.3785046 -0.730378,0.8179446 -0.944259,1.3183214 -0.213885,0.5003881 -0.321293,1.009877 -0.322226,1.5284686 2.33e-4,0.6734079 0.08663,1.2599501 0.259181,1.7596289 0.172553,0.499684 0.429866,0.940526 0.77194,1.322525 0.406749,0.450414 0.901761,0.776842 1.485037,0.979283 0.583272,0.202442 1.134323,0.301912 1.653156,0.298409 0.619929,-0.0012 1.173314,-0.06328 1.66016,-0.18633 0.486834,-0.123052 0.95336,-0.300042 1.399579,-0.530971 0.0565,-0.02149 0.100392,-0.04576 0.131692,-0.07285 0.03128,-0.02709 0.04716,-0.06258 0.04763,-0.106472 -0.0019,-0.04436 -0.0093,-0.09574 -0.02242,-0.154109 -0.01309,-0.05837 -0.02056,-0.126554 -0.02242,-0.204543 l 0,-1.479434 c 0.0019,-0.169749 0.03455,-0.284161 0.09807,-0.3432382 0.0635,-0.05907 0.146627,-0.086625 0.249373,-0.082656 l 0.437106,0 c 0.03268,-9.305e-4 0.05416,-0.010279 0.06445,-0.028015 0.01028,-0.017747 0.01494,-0.038294 0.01401,-0.061639 l 0,-0.2689883 c 0.0012,-0.022876 -0.0039,-0.041563 -0.01541,-0.056041 -0.01145,-0.014478 -0.03621,-0.021946 -0.07425,-0.022416 -0.07332,0.00142 -0.212473,0.007 -0.417472,0.016807 -0.205016,0.00984 -0.506693,0.015407 -0.905032,0.016807 -0.382942,-0.00142 -0.695829,-0.007 -0.938659,-0.016807 -0.242843,-0.00984 -0.404423,-0.015407 -0.484739,-0.016818 -0.02734,-4.581e-4 -0.04555,0.00612 -0.05465,0.019617 -0.0091,0.013548 -0.01332,0.036894 -0.01261,0.070048 l 0,0.2801954 c -0.0019,0.044833 0.02427,0.067249 0.07846,0.067249 l 0.47073,0 c 0.166242,-0.00372 0.284859,0.031755 0.355848,0.1064721 0.07098,0.07472 0.105532,0.211081 0.103673,0.409084 z"
             id="path3785"
             style="font-size:10.24983596999999900px;font-style:normal;font-variant:normal;font-weight:normal;font-stretch:normal;text-align:center;line-height:75%;letter-spacing:0px;word-spacing:0px;writing-mode:lr-tb;text-anchor:middle;fill:#f9f9f9;fill-opacity:1;stroke:none;font-family:Adobe Caslon Pro;-inkscape-font-specification:Adobe Caslon Pro" />
        </g>
        <path
           inkscape:connector-curvature="0"
           d="m 15.248666,19.271357 c 1.52e-4,0.125667 -1.63e-4,0.525441 -9.47e-4,1.19934 -7.94e-4,0.67391 -0.003,1.443396 -0.0067,2.308457 -0.0035,0.865071 -0.0097,1.647175 -0.01792,2.346313 -0.0083,0.699142 -0.02003,1.136776 -0.03502,1.3129 -0.01142,0.126178 -0.07446,0.23722 -0.189268,0.333114 -0.114833,0.0959 -0.273817,0.146368 -0.476959,0.15141 l -1.372836,0 c -0.05889,-4.19e-4 -0.09758,0.01556 -0.116093,0.04794 -0.01852,0.03238 -0.02693,0.08369 -0.02523,0.153931 l 0,0.383586 c -0.0026,0.06142 0.0075,0.110204 0.03027,0.146368 0.02271,0.03616 0.07317,0.05468 0.15141,0.05552 0.130394,-0.0026 0.434904,-0.01261 0.913553,-0.03027 0.478639,-0.01773 1.197025,-0.02775 2.155158,-0.03029 0.970737,0.0026 1.663886,0.01261 2.079447,0.03029 0.415544,0.01773 0.664539,0.02775 0.746986,0.03027 0.08789,-4.21e-4 0.144241,-0.01477 0.169059,-0.0429 0.0248,-0.02819 0.03573,-0.06772 0.0328,-0.118615 l 0,-0.423964 c 0.003,-0.07024 -0.0081,-0.12155 -0.03281,-0.153931 -0.02482,-0.03238 -0.08119,-0.04838 -0.169078,-0.04794 l -1.271893,0 c -0.238067,-0.0022 -0.407988,-0.07361 -0.509766,-0.214505 -0.101794,-0.140892 -0.160668,-0.338582 -0.176642,-0.593045 -0.0049,-0.113611 -0.0089,-0.475643 -0.01162,-1.086092 -0.0028,-0.610445 -0.0047,-1.302435 -0.0059,-2.075972 -0.0012,-0.77353 -0.002,-1.461734 -0.0022,-2.064615 -2.72e-4,-0.60287 -3.76e-4,-0.953544 -3.15e-4,-1.052025 l 0,-5.753797 0.565284,0 c 0.540461,-0.0045 1.170518,0.01477 1.890173,0.05805 0.719635,0.04333 1.253794,0.138391 1.602482,0.285166 0.341094,0.211575 0.643085,0.58086 0.905972,1.107859 0.262861,0.527023 0.43867,0.91145 0.52743,1.153283 0.02817,0.069 0.05257,0.112725 0.07317,0.13122 0.0206,0.01852 0.05003,0.02188 0.08832,0.01005 l 0.32302,-0.08076 c 0.05046,-0.0093 0.08578,-0.02606 0.105989,-0.05046 0.02017,-0.02439 0.02523,-0.0614 0.01517,-0.111032 -0.05734,-0.320017 -0.128877,-0.74772 -0.2146,-1.283108 -0.08576,-0.535364 -0.164765,-1.034849 -0.237031,-1.498455 -0.07229,-0.463579 -0.116901,-0.747717 -0.133841,-0.852414 -0.01891,-0.128266 -0.04166,-0.214911 -0.06813,-0.25993 -0.02651,-0.04499 -0.06437,-0.06602 -0.113553,-0.06309 -0.03914,-4.06e-4 -0.07698,0.0055 -0.113573,0.01773 -0.0366,0.01221 -0.0795,0.03325 -0.128699,0.06309 L 21.810149,12.9523 c -0.166143,0.09886 -0.328501,0.168665 -0.487053,0.209459 -0.15858,0.04081 -0.346166,0.06522 -0.562763,0.07319 -0.464353,0.02273 -0.98926,0.04796 -1.574723,0.07571 -0.585483,0.02777 -1.413221,0.04292 -2.483217,0.04542 l -0.96906,0 c -0.92238,-0.0026 -1.661794,-0.01773 -2.218242,-0.04542 -0.556455,-0.02775 -1.088932,-0.05298 -1.597434,-0.07571 -0.281384,-0.0067 -0.500936,-0.03364 -0.658659,-0.08076 -0.157733,-0.0471 -0.321759,-0.13457 -0.4921,-0.262454 l -0.262442,-0.181703 c -0.03912,-0.02984 -0.07698,-0.05088 -0.113553,-0.06309 -0.0366,-0.01221 -0.0795,-0.01812 -0.1287,-0.01773 -0.04123,-0.003 -0.07991,0.01812 -0.116094,0.06309 -0.03616,0.04503 -0.06478,0.131654 -0.0858,0.25993 -0.02068,0.100336 -0.09372,0.386468 -0.2190867,0.858396 -0.1253705,0.471956 -0.2597114,0.97194 -0.4030261,1.49995 -0.1433148,0.528035 -0.2522348,0.926326 -0.3267581,1.194876 -0.018121,0.05848 -0.017333,0.09801 0.00256,0.118615 0.019776,0.02062 0.045854,0.03492 0.078236,0.0429 l 0.3633964,0.100946 c 0.05005,0.01103 0.091276,0.0093 0.1236572,-0.0051 0.032382,-0.01438 0.058461,-0.04625 0.078236,-0.0959 0.1417386,-0.362544 0.3629763,-0.798285 0.6637063,-1.307222 0.300729,-0.508911 0.678425,-0.853802 1.133095,-1.034673 0.437,-0.116074 0.986302,-0.186727 1.647907,-0.211982 0.661598,-0.02523 1.17557,-0.03532 1.541917,-0.03029 l 0.504719,0 z"
           id="path3787"
           style="font-size:10.24983596999999900px;font-style:normal;font-variant:normal;font-weight:normal;font-stretch:normal;text-align:center;line-height:75%;letter-spacing:0px;word-spacing:0px;writing-mode:lr-tb;text-anchor:middle;fill:#f9f9f9;fill-opacity:1;stroke:none;font-family:Adobe Caslon Pro;-inkscape-font-specification:Adobe Caslon Pro" />
      </g>
    </g>
  </g>
</svg>
